<svg xmlns="http://www.w3.org/2000/svg" xmlns:xlink="http://www.w3.org/1999/xlink" width="1080" zoomAndPan="magnify" viewBox="0 0 810 809.999993" height="1080" preserveAspectRatio="xMidYMid meet" version="1.0"><defs><clipPath id="22e007ee43"><path d="M 154 663 L 618 663 L 618 785.476562 L 154 785.476562 Z M 154 663 " clip-rule="nonzero"/></clipPath></defs><path fill="#0c2e1b" d="M 154.480469 720.367188 C 143.800781 720.367188 126.839844 718.324219 106.628906 708.628906 C 86.996094 699.207031 69.039062 684.832031 53.246094 665.894531 C 52.921875 665.503906 52.972656 664.921875 53.363281 664.597656 C 53.753906 664.269531 54.335938 664.324219 54.660156 664.710938 C 96.28125 714.628906 141.558594 718.527344 154.488281 718.527344 C 154.496094 718.527344 154.507812 718.527344 154.515625 718.527344 C 155.023438 718.527344 155.433594 718.9375 155.433594 719.445312 C 155.433594 719.964844 155.023438 720.375 154.480469 720.367188 " fill-opacity="1" fill-rule="nonzero"/><path fill="#0c2e1b" d="M 158.292969 739.289062 C 154.527344 739.289062 137.144531 738.765625 114.519531 729.921875 C 91.023438 720.734375 56.84375 700.433594 27.46875 655.863281 C 27.1875 655.4375 27.304688 654.867188 27.730469 654.585938 C 28.15625 654.308594 28.726562 654.425781 29.003906 654.847656 C 58.085938 698.96875 91.875 719.074219 115.09375 728.167969 C 140.261719 738.027344 158.796875 737.453125 158.984375 737.441406 C 159.472656 737.417969 159.917969 737.8125 159.9375 738.324219 C 159.957031 738.832031 159.5625 739.257812 159.054688 739.277344 C 159.03125 739.28125 158.773438 739.289062 158.292969 739.289062 " fill-opacity="1" fill-rule="nonzero"/><path fill="#0c2e1b" d="M 730.273438 398.320312 C 730.183594 398.320312 730.101562 398.308594 730.007812 398.277344 C 729.523438 398.128906 729.246094 397.613281 729.394531 397.128906 C 735.59375 376.835938 737.949219 356.550781 736.398438 336.839844 C 736.359375 336.332031 736.734375 335.886719 737.25 335.84375 C 737.738281 335.808594 738.195312 336.1875 738.234375 336.695312 C 739.800781 356.636719 737.421875 377.148438 731.15625 397.667969 C 731.039062 398.0625 730.671875 398.320312 730.273438 398.320312 " fill-opacity="1" fill-rule="nonzero"/><path fill="#0c2e1b" d="M 742.695312 415.261719 C 742.585938 415.261719 742.476562 415.242188 742.375 415.207031 C 741.898438 415.027344 741.65625 414.5 741.832031 414.023438 C 755.535156 377.324219 757.90625 340.828125 748.882812 305.550781 C 748.757812 305.058594 749.054688 304.554688 749.542969 304.429688 C 750.035156 304.304688 750.539062 304.597656 750.664062 305.089844 C 759.785156 340.738281 757.398438 377.605469 743.558594 414.667969 C 743.421875 415.035156 743.066406 415.261719 742.695312 415.261719 " fill-opacity="1" fill-rule="nonzero"/><path fill="#0c2e1b" d="M 26.089844 635.207031 C 29.820312 636.066406 33.554688 633.730469 34.417969 630.003906 C 34.835938 628.195312 34.523438 626.335938 33.539062 624.761719 C 32.558594 623.191406 31.019531 622.09375 29.214844 621.679688 C 25.480469 620.820312 21.746094 623.148438 20.886719 626.878906 C 20.027344 630.609375 22.363281 634.34375 26.089844 635.207031 Z M 27.652344 637.226562 C 27 637.226562 26.339844 637.148438 25.679688 637 C 20.957031 635.910156 18.003906 631.1875 19.09375 626.46875 C 20.179688 621.746094 24.910156 618.792969 29.625 619.882812 C 31.914062 620.414062 33.855469 621.796875 35.101562 623.785156 C 36.34375 625.773438 36.738281 628.128906 36.210938 630.414062 C 35.277344 634.472656 31.652344 637.226562 27.652344 637.226562 " fill-opacity="1" fill-rule="nonzero"/><path fill="#0c2e1b" d="M 143.054688 295.144531 C 142.988281 295.144531 142.917969 295.136719 142.847656 295.117188 C 142.351562 295 142.042969 294.507812 142.160156 294.015625 L 143.476562 288.378906 C 143.59375 287.882812 144.089844 287.574219 144.582031 287.691406 C 145.078125 287.808594 145.386719 288.300781 145.269531 288.796875 L 143.953125 294.433594 C 143.851562 294.855469 143.476562 295.144531 143.054688 295.144531 " fill-opacity="1" fill-rule="nonzero"/><path fill="#0c2e1b" d="M 147.667969 275.417969 C 147.597656 275.417969 147.527344 275.410156 147.457031 275.394531 C 146.960938 275.277344 146.65625 274.78125 146.769531 274.289062 L 148.085938 268.652344 C 148.203125 268.160156 148.699219 267.851562 149.195312 267.96875 C 149.6875 268.082031 149.996094 268.578125 149.878906 269.070312 L 148.5625 274.707031 C 148.464844 275.132812 148.085938 275.417969 147.667969 275.417969 " fill-opacity="1" fill-rule="nonzero"/><path fill="#0c2e1b" d="M 158.722656 285.351562 C 158.65625 285.351562 158.585938 285.351562 158.515625 285.332031 L 152.871094 284.046875 C 152.375 283.933594 152.066406 283.4375 152.179688 282.945312 C 152.292969 282.449219 152.785156 282.132812 153.28125 282.25 L 158.925781 283.539062 C 159.421875 283.652344 159.730469 284.144531 159.617188 284.640625 C 159.519531 285.066406 159.140625 285.351562 158.722656 285.351562 " fill-opacity="1" fill-rule="nonzero"/><path fill="#0c2e1b" d="M 138.964844 280.855469 C 138.898438 280.855469 138.828125 280.851562 138.761719 280.835938 L 133.117188 279.546875 C 132.621094 279.433594 132.308594 278.941406 132.421875 278.445312 C 132.535156 277.953125 133.03125 277.636719 133.523438 277.753906 L 139.167969 279.039062 C 139.664062 279.152344 139.976562 279.648438 139.863281 280.140625 C 139.765625 280.570312 139.386719 280.855469 138.964844 280.855469 " fill-opacity="1" fill-rule="nonzero"/><path fill="#ffffff" d="M 11.070312 162.839844 C 8.882812 142.78125 9.53125 114.078125 26.046875 89.621094 C 71.714844 21.992188 211.34375 27.339844 240.105469 80.472656 C 254.699219 107.441406 241.066406 147.328125 219.539062 169.71875 C 187.707031 202.824219 132.3125 204.253906 97.90625 186.019531 C 65.144531 168.660156 54.082031 134.894531 33.746094 138.707031 C 22.4375 140.820312 15.25 153.242188 11.070312 162.839844 " fill-opacity="1" fill-rule="nonzero"/><path fill="#0c2e1b" d="M 36.921875 137.484375 C 46.835938 137.484375 54.675781 146.003906 64.351562 156.515625 C 73.339844 166.285156 83.527344 177.359375 98.335938 185.203125 C 131.804688 202.941406 187.402344 201.816406 218.875 169.078125 C 229.703125 157.816406 238.308594 142.324219 242.476562 126.574219 C 247.039062 109.355469 245.90625 93.136719 239.292969 80.917969 C 227.054688 58.304688 193.183594 42.972656 150.886719 40.898438 C 110.320312 38.910156 53.496094 50.617188 26.808594 90.140625 C 14.328125 108.621094 9.234375 131.894531 11.652344 159.355469 C 17.773438 146.625 25.140625 139.378906 33.574219 137.796875 C 34.71875 137.582031 35.832031 137.484375 36.921875 137.484375 Z M 148.007812 198.621094 C 129.863281 198.621094 111.941406 194.496094 97.476562 186.832031 C 82.386719 178.839844 72.085938 167.640625 62.996094 157.761719 C 52.644531 146.515625 44.46875 137.625 33.914062 139.605469 C 25.449219 141.195312 18.046875 149.132812 11.914062 163.207031 C 11.746094 163.589844 11.34375 163.8125 10.929688 163.746094 C 10.519531 163.6875 10.199219 163.355469 10.15625 162.933594 C 6.953125 133.554688 12.042969 108.71875 25.285156 89.109375 C 36.988281 71.777344 55.800781 58.007812 79.6875 49.28125 C 101.023438 41.480469 126.339844 37.855469 150.976562 39.0625 C 193.910156 41.160156 228.371094 56.863281 240.914062 80.042969 C 255.820312 107.582031 242.089844 147.585938 220.203125 170.355469 C 205.363281 185.792969 183.902344 195.621094 159.78125 198.039062 C 155.867188 198.429688 151.933594 198.621094 148.007812 198.621094 " fill-opacity="1" fill-rule="nonzero"/><path fill="#ffffff" d="M 76.0625 105 L 193.375 101.335938 L 76.0625 105 " fill-opacity="1" fill-rule="nonzero"/><path fill="#0c2e1b" d="M 76.0625 105.921875 C 75.570312 105.921875 75.160156 105.527344 75.144531 105.023438 C 75.128906 104.519531 75.527344 104.09375 76.035156 104.078125 L 193.347656 100.417969 C 193.835938 100.363281 194.28125 100.800781 194.296875 101.308594 C 194.3125 101.8125 193.910156 102.238281 193.402344 102.257812 L 76.09375 105.921875 C 76.082031 105.921875 76.074219 105.921875 76.0625 105.921875 " fill-opacity="1" fill-rule="nonzero"/><path fill="#ffffff" d="M 103.785156 124.777344 L 162.808594 122.933594 L 103.785156 124.777344 " fill-opacity="1" fill-rule="nonzero"/><path fill="#0c2e1b" d="M 103.785156 125.699219 C 103.289062 125.699219 102.882812 125.304688 102.867188 124.808594 C 102.851562 124.296875 103.25 123.875 103.757812 123.859375 L 162.78125 122.015625 C 163.300781 122.003906 163.714844 122.398438 163.730469 122.90625 C 163.746094 123.414062 163.34375 123.839844 162.835938 123.855469 L 103.816406 125.699219 C 103.804688 125.699219 103.796875 125.699219 103.785156 125.699219 " fill-opacity="1" fill-rule="nonzero"/><path fill="#ffffff" d="M 322.683594 281.542969 C 325.535156 277.253906 357.632812 227.203125 334.769531 171.980469 C 318.71875 133.210938 280.015625 102.605469 236.175781 102.261719 C 228.78125 102.203125 182.136719 101.839844 158.296875 139.828125 C 142.242188 165.417969 141.496094 200.488281 158.65625 225.453125 C 179.046875 255.121094 216.324219 258.273438 221.855469 258.660156 C 260.558594 261.335938 281.046875 235.921875 302.460938 247.214844 C 315.558594 254.121094 320.519531 270.296875 322.683594 281.542969 " fill-opacity="1" fill-rule="nonzero"/><path fill="#0c2e1b" d="M 290.664062 243.402344 C 294.785156 243.402344 298.828125 244.257812 302.886719 246.398438 C 312.765625 251.605469 319.566406 262.613281 323.132812 279.136719 C 329.792969 268.355469 354.75 222.652344 333.921875 172.335938 C 316.929688 131.296875 277.644531 103.503906 236.167969 103.179688 C 235.898438 103.179688 235.621094 103.175781 235.335938 103.175781 C 218.742188 103.175781 179.988281 106.996094 159.078125 140.324219 C 142.828125 166.214844 142.96875 201.007812 159.414062 224.929688 C 178.980469 253.398438 214.914062 257.253906 221.917969 257.738281 C 240.449219 259.027344 254.613281 253.847656 267.105469 249.289062 C 275.527344 246.210938 283.210938 243.402344 290.664062 243.402344 Z M 322.683594 282.464844 C 322.621094 282.464844 322.5625 282.457031 322.5 282.445312 C 322.136719 282.371094 321.847656 282.085938 321.777344 281.714844 C 318.46875 264.527344 311.828125 253.191406 302.027344 248.03125 C 291.339844 242.390625 280.921875 246.195312 267.738281 251.015625 C 255.070312 255.640625 240.726562 260.886719 221.789062 259.578125 C 214.640625 259.082031 177.945312 255.136719 157.894531 225.976562 C 141.046875 201.464844 140.890625 165.839844 157.519531 139.34375 C 178.914062 105.242188 218.425781 101.335938 235.335938 101.335938 C 235.625 101.335938 235.90625 101.335938 236.179688 101.34375 C 257.359375 101.503906 278.195312 108.640625 296.4375 121.972656 C 313.65625 134.546875 327.570312 152.1875 335.621094 171.628906 C 358.480469 226.847656 327.101562 276.5625 323.449219 282.054688 C 323.277344 282.3125 322.984375 282.464844 322.683594 282.464844 " fill-opacity="1" fill-rule="nonzero"/><path fill="#ffffff" d="M 187.703125 173.640625 L 297.988281 170.195312 L 187.703125 173.640625 " fill-opacity="1" fill-rule="nonzero"/><path fill="#0c2e1b" d="M 187.703125 174.554688 C 187.210938 174.554688 186.800781 174.164062 186.785156 173.664062 C 186.769531 173.15625 187.167969 172.730469 187.675781 172.714844 L 297.960938 169.273438 C 298.453125 169.269531 298.890625 169.652344 298.910156 170.164062 C 298.925781 170.671875 298.527344 171.09375 298.019531 171.113281 L 187.734375 174.554688 C 187.722656 174.554688 187.714844 174.554688 187.703125 174.554688 " fill-opacity="1" fill-rule="nonzero"/><path fill="#ffffff" d="M 222.746094 186.933594 L 262.207031 185.699219 L 222.746094 186.933594 " fill-opacity="1" fill-rule="nonzero"/><path fill="#0c2e1b" d="M 222.746094 187.851562 C 222.25 187.851562 221.84375 187.457031 221.824219 186.957031 C 221.8125 186.449219 222.210938 186.027344 222.71875 186.007812 L 262.175781 184.78125 C 262.695312 184.765625 263.109375 185.160156 263.125 185.667969 C 263.140625 186.175781 262.742188 186.601562 262.234375 186.617188 L 222.773438 187.851562 C 222.765625 187.851562 222.753906 187.851562 222.746094 187.851562 " fill-opacity="1" fill-rule="nonzero"/><path fill="#ffffff" d="M 132.378906 364.285156 C 127.910156 352.671875 121.425781 327.667969 116.628906 319.851562 C 111.832031 312.035156 106.054688 305.152344 96.589844 298.328125 C 91.734375 294.828125 81.792969 288.074219 74.003906 285.445312 C 66.214844 282.816406 68.699219 298.332031 75.628906 301.53125 C 82.554688 304.730469 87.707031 310.085938 85.671875 311.308594 C 84.261719 312.15625 80.234375 315.980469 73.09375 313.773438 C 65.089844 311.304688 60.203125 303.304688 60.941406 294.964844 C 61.070312 293.523438 61.308594 292.0625 61.707031 290.652344 C 64.144531 282.054688 60.625 272.726562 52.65625 268.675781 C 48.886719 266.761719 44.28125 265.628906 38.753906 266.179688 C 29.996094 267.058594 24.757812 316.238281 56.765625 334.25 C 63.390625 337.972656 91.167969 345.574219 96.449219 353.933594 C 101.730469 362.296875 107.0625 378.550781 107.0625 378.550781 L 132.378906 364.285156 " fill-opacity="1" fill-rule="nonzero"/><path fill="#0c2e1b" d="M 41.507812 266.960938 C 40.632812 266.960938 39.746094 267.007812 38.847656 267.097656 C 37.445312 267.238281 35.339844 269.65625 34.007812 276.027344 C 30.796875 291.367188 34.253906 320.523438 57.21875 333.445312 C 59.183594 334.550781 63.210938 336.0625 67.875 337.8125 C 79.246094 342.078125 93.398438 347.378906 97.226562 353.445312 C 101.785156 360.664062 106.296875 373.425781 107.582031 377.203125 L 131.234375 363.871094 C 129.632812 359.589844 127.804688 353.78125 125.878906 347.652344 C 122.5625 337.105469 118.800781 325.152344 115.84375 320.335938 C 110.453125 311.550781 104.535156 305.191406 96.050781 299.078125 C 90.96875 295.414062 81.308594 288.878906 73.707031 286.316406 C 71.515625 285.578125 70.816406 286.617188 70.476562 287.464844 C 69.191406 290.695312 71.484375 298.605469 76.011719 300.695312 C 81.851562 303.386719 86.898438 307.824219 87.035156 310.378906 C 87.074219 311.109375 86.75 311.730469 86.144531 312.097656 C 85.988281 312.191406 85.792969 312.332031 85.5625 312.492188 C 83.753906 313.757812 79.519531 316.726562 72.820312 314.65625 C 64.613281 312.117188 59.234375 303.804688 60.023438 294.882812 C 60.167969 293.269531 60.433594 291.761719 60.820312 290.402344 C 63.195312 282.023438 59.585938 273.230469 52.238281 269.5 C 48.921875 267.8125 45.324219 266.960938 41.507812 266.960938 Z M 107.0625 379.472656 C 106.949219 379.472656 106.835938 379.453125 106.730469 379.414062 C 106.472656 379.3125 106.277344 379.101562 106.191406 378.839844 C 106.136719 378.675781 100.828125 362.597656 95.671875 354.425781 C 92.171875 348.890625 77.753906 343.480469 67.226562 339.535156 C 62.496094 337.757812 58.40625 336.226562 56.3125 335.050781 C 32.496094 321.648438 28.886719 291.5 32.207031 275.648438 C 33.527344 269.328125 35.882812 265.546875 38.664062 265.265625 C 43.824219 264.753906 48.671875 265.621094 53.074219 267.855469 C 61.203125 271.988281 65.207031 281.679688 62.59375 290.90625 C 62.238281 292.15625 61.992188 293.546875 61.859375 295.042969 C 61.144531 303.109375 65.980469 310.613281 73.363281 312.894531 C 79.195312 314.699219 82.78125 312.1875 84.507812 310.984375 C 84.78125 310.792969 85.011719 310.628906 85.199219 310.519531 C 85.441406 309.621094 81.742188 305.363281 75.242188 302.367188 C 70.070312 299.984375 67.019531 291.175781 68.769531 286.78125 C 69.675781 284.5 71.695312 283.691406 74.296875 284.574219 C 82.125 287.214844 91.960938 293.859375 97.128906 297.585938 C 105.703125 303.765625 111.960938 310.484375 117.414062 319.371094 C 120.488281 324.382812 124.121094 335.929688 127.636719 347.097656 C 129.667969 353.5625 131.585938 359.667969 133.238281 363.953125 C 133.398438 364.378906 133.226562 364.863281 132.828125 365.089844 L 107.515625 379.355469 C 107.375 379.433594 107.21875 379.472656 107.0625 379.472656 " fill-opacity="1" fill-rule="nonzero"/><path fill="#0c2e1b" d="M 89.71875 381.855469 L 142.59375 348.324219 C 142.59375 348.324219 234.199219 472.257812 264.265625 481.035156 C 294.335938 489.808594 345.242188 493.667969 345.242188 493.667969 C 345.242188 493.667969 377.164062 573.097656 308.683594 607.941406 C 199.519531 663.484375 89.71875 381.855469 89.71875 381.855469 " fill-opacity="1" fill-rule="nonzero"/><path fill="#0c2e1b" d="M 347.886719 656.917969 L 622.890625 693.683594 C 610.460938 653.957031 606.675781 592.265625 617.085938 551.941406 C 642.378906 453.9375 651.570312 368.175781 598.632812 347.585938 C 585.074219 342.300781 569.78125 337.441406 552.628906 332.851562 C 497.910156 318.1875 396.101562 318.910156 340.875 355.746094 C 253.1875 414.234375 231.085938 541.140625 231.085938 541.140625 L 344.40625 560.941406 L 347.886719 656.917969 " fill-opacity="1" fill-rule="nonzero"/><path fill="#ffffff" d="M 155.234375 664.269531 L 156 677.167969 C 156.101562 678.902344 157.292969 680.378906 158.964844 680.851562 L 526.851562 784.136719 C 530.90625 785.28125 535.269531 784.398438 538.566406 781.769531 L 616.976562 716.015625 L 589.527344 686.601562 L 155.234375 664.269531 " fill-opacity="1" fill-rule="nonzero"/><g clip-path="url(#22e007ee43)"><path fill="#0c2e1b" d="M 156.214844 665.242188 L 156.917969 677.117188 C 156.996094 678.453125 157.917969 679.601562 159.214844 679.964844 L 527.097656 783.253906 C 530.855469 784.308594 534.933594 783.484375 537.992188 781.050781 L 615.644531 715.933594 L 589.109375 687.503906 Z M 530.375 785.546875 C 529.113281 785.546875 527.839844 785.375 526.597656 785.027344 L 158.714844 681.738281 C 156.664062 681.164062 155.203125 679.347656 155.078125 677.222656 L 154.316406 664.324219 C 154.300781 664.0625 154.398438 663.808594 154.582031 663.621094 C 154.765625 663.433594 155.003906 663.332031 155.285156 663.351562 L 589.574219 685.6875 C 589.8125 685.695312 590.039062 685.800781 590.199219 685.976562 L 617.648438 715.390625 C 617.824219 715.574219 617.910156 715.824219 617.898438 716.070312 C 617.882812 716.324219 617.761719 716.5625 617.570312 716.722656 L 539.160156 782.476562 C 536.632812 784.484375 533.523438 785.546875 530.375 785.546875 " fill-opacity="1" fill-rule="nonzero"/></g><path fill="#ffffff" d="M 155.234375 664.269531 L 528.785156 765.417969 C 532.445312 766.410156 536.363281 765.558594 539.277344 763.132812 L 622.886719 693.683594 L 269.945312 602.5 L 155.234375 664.269531 " fill-opacity="1" fill-rule="nonzero"/><path fill="#0c2e1b" d="M 157.707031 663.984375 L 529.027344 764.527344 C 532.394531 765.441406 536.003906 764.652344 538.6875 762.421875 L 620.914062 694.125 L 270.0625 603.484375 Z M 531.824219 766.742188 C 530.730469 766.742188 529.625 766.597656 528.539062 766.304688 L 154.996094 665.15625 C 154.632812 665.058594 154.363281 664.75 154.324219 664.375 C 154.277344 664.003906 154.46875 663.636719 154.800781 663.457031 L 269.507812 601.695312 C 269.710938 601.585938 269.949219 601.554688 270.171875 601.613281 L 623.117188 692.789062 C 623.449219 692.878906 623.710938 693.144531 623.785156 693.480469 C 623.863281 693.816406 623.742188 694.167969 623.476562 694.390625 L 539.863281 763.839844 C 537.585938 765.738281 534.730469 766.742188 531.824219 766.742188 " fill-opacity="1" fill-rule="nonzero"/><path fill="#ffffff" d="M 660.195312 612.207031 L 626.007812 674.292969 C 622.890625 679.957031 615.8125 682.007812 610.179688 678.882812 L 588.65625 667.558594 C 586.21875 666.203125 582.96875 665.050781 579.609375 664.363281 C 573.9375 663.210938 568.042969 664.71875 563.554688 668.398438 L 530.289062 695.625 C 513.582031 713.640625 550.257812 717.554688 557.59375 716.765625 C 570.210938 715.40625 570.210938 715.40625 570.210938 715.40625 C 570.210938 715.40625 584.121094 715.988281 595.261719 719.96875 C 606.398438 723.945312 622.125 726.460938 638.230469 720.738281 L 639.496094 720.289062 C 649.132812 716.867188 657.394531 710.359375 663.027344 701.757812 L 704.054688 639.105469 L 660.195312 612.207031 " fill-opacity="1" fill-rule="nonzero"/><path fill="#0c2e1b" d="M 570.210938 714.488281 C 570.226562 714.488281 570.242188 714.488281 570.25 714.488281 C 570.394531 714.492188 584.429688 715.117188 595.570312 719.097656 C 603.863281 722.058594 620.394531 726.101562 637.933594 719.871094 L 639.195312 719.421875 C 648.582031 716.085938 656.773438 709.636719 662.261719 701.253906 L 702.761719 639.390625 L 660.542969 613.492188 L 626.816406 674.730469 C 625.1875 677.699219 622.5 679.84375 619.265625 680.773438 C 616.050781 681.699219 612.664062 681.316406 609.734375 679.6875 L 588.230469 668.371094 C 585.855469 667.050781 582.652344 665.925781 579.425781 665.265625 C 574.039062 664.167969 568.464844 665.570312 564.140625 669.109375 L 530.925781 696.296875 C 527.222656 700.3125 526.0625 703.800781 527.503906 706.667969 C 531.25 714.128906 551.691406 716.464844 557.503906 715.84375 L 570.117188 714.492188 C 570.148438 714.488281 570.179688 714.488281 570.210938 714.488281 Z M 618.515625 724.988281 C 608.613281 724.988281 600.179688 722.703125 594.949219 720.835938 C 584.460938 717.082031 571.296875 716.382812 570.242188 716.328125 L 557.699219 717.675781 C 552.496094 718.238281 530.328125 716.402344 525.859375 707.492188 C 524.035156 703.859375 525.300781 699.65625 529.621094 695 C 529.652344 694.964844 529.675781 694.9375 529.710938 694.914062 L 562.972656 667.6875 C 567.730469 663.792969 573.867188 662.257812 579.796875 663.464844 C 583.246094 664.164062 586.550781 665.335938 589.105469 666.75 L 610.613281 678.066406 C 613.128906 679.464844 616.015625 679.796875 618.753906 679.003906 C 621.519531 678.210938 623.808594 676.378906 625.207031 673.847656 L 659.394531 611.761719 C 659.515625 611.539062 659.722656 611.378906 659.964844 611.316406 C 660.203125 611.253906 660.464844 611.285156 660.683594 611.421875 L 704.539062 638.320312 C 704.746094 638.449219 704.902344 638.664062 704.953125 638.902344 C 705.007812 639.148438 704.964844 639.402344 704.824219 639.609375 L 663.804688 702.265625 C 658.097656 710.976562 649.574219 717.691406 639.808594 721.160156 L 638.546875 721.605469 C 631.566406 724.082031 624.75 724.988281 618.515625 724.988281 " fill-opacity="1" fill-rule="nonzero"/><path fill="#0c2e1b" d="M 590.066406 503.386719 C 649.449219 512.652344 639.390625 567.253906 639.390625 567.253906 L 626.972656 649.847656 L 686.570312 688.617188 C 686.570312 688.617188 805.992188 560.179688 755.863281 456.976562 C 714.347656 371.507812 569.613281 337.820312 569.613281 337.820312 L 590.066406 503.386719 " fill-opacity="1" fill-rule="nonzero"/><path fill="#0c2e1b" d="M 414.285156 244.585938 C 407.695312 241.566406 404.28125 246.59375 394.472656 245.234375 C 384.042969 243.785156 372.574219 235.980469 368.269531 224.570312 C 363.070312 210.792969 370.5625 197.660156 375.289062 189.378906 C 379.984375 181.140625 385.964844 171.96875 396.335938 168.003906 C 409.855469 162.839844 415.511719 170.769531 430.996094 165.902344 C 443.589844 161.949219 442.667969 155.816406 453.871094 152.597656 C 463.21875 149.914062 490.132812 151.441406 496.160156 165.902344 C 499.980469 175.082031 491.742188 180.660156 495.851562 194.261719 C 498.320312 202.417969 502.199219 203.417969 505.027344 209.722656 C 512.050781 225.355469 503.25 252.820312 486.492188 262.015625 C 463.761719 274.503906 425.644531 249.796875 414.285156 244.585938 " fill-opacity="1" fill-rule="nonzero"/><path fill="#ffffff" d="M 435.195312 270.8125 L 429.902344 314.671875 C 428.898438 323.03125 422.9375 329.90625 414.878906 332.03125 L 399.644531 336.945312 C 396.671875 337.902344 396.078125 341.941406 398.683594 343.664062 C 437.179688 369.144531 490.296875 368.695312 527.152344 340.453125 L 531.464844 337.144531 C 534.328125 334.949219 533.339844 330.371094 529.832031 329.582031 L 510.984375 325.324219 C 503.011719 323.527344 496.886719 317.078125 495.441406 308.957031 L 483.910156 244.34375 L 435.195312 270.8125 " fill-opacity="1" fill-rule="nonzero"/><path fill="#0c2e1b" d="M 436.046875 271.398438 L 430.8125 314.785156 C 429.757812 323.574219 423.589844 330.6875 415.113281 332.921875 L 399.921875 337.820312 C 398.878906 338.160156 398.132812 339.058594 397.984375 340.171875 C 397.828125 341.277344 398.28125 342.296875 399.191406 342.898438 C 438.132812 368.675781 490.523438 367.367188 526.589844 339.722656 L 530.90625 336.417969 C 531.949219 335.613281 532.417969 334.3125 532.132812 333.019531 C 531.851562 331.71875 530.914062 330.769531 529.628906 330.480469 L 510.777344 326.226562 C 502.425781 324.34375 496.046875 317.625 494.53125 309.117188 L 483.226562 245.761719 Z M 461.132812 363.210938 C 439.226562 363.210938 417.132812 356.980469 398.179688 344.433594 C 396.679688 343.445312 395.910156 341.71875 396.15625 339.917969 C 396.402344 338.101562 397.628906 336.625 399.363281 336.070312 L 414.597656 331.15625 C 422.386719 329.101562 428.015625 322.59375 428.988281 314.566406 L 434.277344 270.703125 C 434.3125 270.410156 434.492188 270.144531 434.75 270.003906 L 483.472656 243.535156 C 483.730469 243.398438 484.042969 243.386719 484.304688 243.511719 C 484.574219 243.644531 484.761719 243.890625 484.816406 244.183594 L 496.34375 308.796875 C 497.730469 316.574219 503.554688 322.707031 511.1875 324.429688 L 530.03125 328.683594 C 532.007812 329.132812 533.496094 330.636719 533.933594 332.621094 C 534.371094 334.625 533.644531 336.632812 532.023438 337.875 L 527.714844 341.179688 C 508.59375 355.832031 484.972656 363.210938 461.132812 363.210938 " fill-opacity="1" fill-rule="nonzero"/><path fill="#ffffff" d="M 478.359375 253.253906 C 478.359375 253.253906 495.527344 244.828125 489.492188 228.753906 C 483.976562 214.058594 472.152344 228.675781 472.152344 228.675781 C 472.152344 228.675781 462.410156 193.433594 441.953125 207.335938 C 421.5 221.234375 402.117188 226.285156 402.117188 226.285156 C 402.117188 226.285156 409.320312 261.757812 422.261719 285.359375 C 430.066406 299.59375 439.953125 309.507812 451.609375 304.726562 C 483.515625 291.628906 478.359375 253.253906 478.359375 253.253906 " fill-opacity="1" fill-rule="nonzero"/><path fill="#0c2e1b" d="M 403.195312 226.9375 C 404.378906 232.429688 411.441406 263.703125 423.070312 284.914062 C 432.132812 301.453125 441.621094 307.832031 451.261719 303.875 C 482.121094 291.207031 477.5 253.753906 477.453125 253.378906 C 477.398438 252.984375 477.601562 252.601562 477.953125 252.429688 C 478.625 252.097656 494.292969 244.167969 488.628906 229.078125 C 487.292969 225.527344 485.5 223.542969 483.292969 223.183594 C 478.46875 222.402344 472.917969 229.1875 472.863281 229.253906 C 472.648438 229.523438 472.308594 229.652344 471.960938 229.574219 C 471.625 229.503906 471.355469 229.253906 471.261719 228.917969 C 471.207031 228.726562 465.820312 209.648438 455.113281 205.710938 C 451.175781 204.265625 446.925781 205.066406 442.472656 208.09375 C 424.519531 220.292969 407.167969 225.777344 403.195312 226.9375 Z M 445.65625 306.878906 C 437.253906 306.878906 429.140625 299.820312 421.453125 285.800781 C 408.597656 262.347656 401.285156 226.824219 401.214844 226.46875 C 401.117188 225.988281 401.40625 225.515625 401.882812 225.390625 C 402.078125 225.34375 421.359375 220.214844 441.433594 206.570312 C 446.40625 203.195312 451.21875 202.320312 455.746094 203.984375 C 465.546875 207.585938 470.972656 221.984375 472.554688 226.847656 C 474.601562 224.699219 479.140625 220.640625 483.585938 221.367188 C 486.492188 221.835938 488.769531 224.21875 490.351562 228.429688 C 495.957031 243.363281 482.359375 252.0625 479.339844 253.765625 C 479.820312 258.890625 481.871094 293.304688 451.957031 305.578125 C 449.84375 306.449219 447.746094 306.878906 445.65625 306.878906 " fill-opacity="1" fill-rule="nonzero"/><path fill="#0c2e1b" d="M 449.125 286.003906 C 448.757812 286.003906 448.40625 285.78125 448.265625 285.417969 C 448.082031 284.945312 448.316406 284.410156 448.785156 284.226562 L 476.339844 273.476562 C 488.871094 268.589844 495.96875 255.488281 493.21875 242.320312 L 490.484375 229.246094 C 490.378906 228.742188 490.699219 228.257812 491.199219 228.152344 C 491.691406 228.046875 492.183594 228.367188 492.285156 228.867188 L 495.019531 241.945312 C 497.953125 255.992188 490.375 269.976562 477.007812 275.191406 L 449.457031 285.941406 C 449.351562 285.984375 449.234375 286.003906 449.125 286.003906 " fill-opacity="1" fill-rule="nonzero"/><path fill="#ffffff" d="M 486.703125 216.441406 C 486.308594 216.441406 485.9375 216.183594 485.820312 215.78125 C 485.714844 215.433594 475.375 181.082031 452.300781 168.925781 C 443.0625 164.058594 432.945312 163.359375 422.222656 166.847656 C 421.730469 167.003906 421.214844 166.738281 421.0625 166.257812 C 420.902344 165.777344 421.167969 165.257812 421.652344 165.097656 C 432.871094 161.449219 443.472656 162.1875 453.164062 167.300781 C 476.925781 179.828125 487.164062 213.816406 487.585938 215.261719 C 487.730469 215.746094 487.453125 216.261719 486.960938 216.402344 C 486.871094 216.429688 486.789062 216.441406 486.703125 216.441406 " fill-opacity="1" fill-rule="nonzero"/><path fill="#0c2e1b" d="M 440.507812 291.535156 C 437.5 288.496094 437.570312 283.554688 440.664062 280.492188 C 443.753906 277.433594 448.703125 277.414062 451.710938 280.453125 C 454.714844 283.488281 454.644531 288.4375 451.550781 291.496094 C 448.457031 294.554688 443.515625 294.574219 440.507812 291.535156 " fill-opacity="1" fill-rule="nonzero"/><path fill="#ffffff" d="M 471.980469 239.707031 C 467.414062 228.621094 471.949219 216.238281 482.117188 212.054688 C 483.234375 211.59375 487.480469 210.324219 488.621094 210.09375 C 497.921875 208.230469 504.722656 214.675781 508.789062 224.542969 C 513.171875 235.1875 511.769531 246.625 502.441406 251.257812 C 502.054688 251.449219 499.203125 252.476562 498.78125 252.589844 C 487.253906 255.757812 476.546875 250.792969 471.980469 239.707031 " fill-opacity="1" fill-rule="nonzero"/><path fill="#0c2e1b" d="M 472.835938 239.351562 C 477.199219 249.941406 487.285156 254.792969 498.542969 251.699219 C 498.929688 251.589844 501.695312 250.59375 502.035156 250.425781 C 511.453125 245.75 511.789062 234.226562 507.941406 224.890625 C 505.421875 218.773438 499.582031 208.828125 488.804688 210.992188 C 487.691406 211.21875 483.484375 212.480469 482.472656 212.898438 C 472.796875 216.886719 468.46875 228.753906 472.835938 239.351562 Z M 492.101562 254.429688 C 482.867188 254.429688 474.890625 249.160156 471.132812 240.050781 C 466.382812 228.515625 471.15625 215.570312 481.773438 211.195312 C 482.894531 210.734375 487.203125 209.4375 488.445312 209.1875 C 497.386719 207.398438 504.917969 212.722656 509.644531 224.183594 C 514.65625 236.359375 511.929688 247.566406 502.855469 252.078125 C 502.386719 252.308594 499.476562 253.347656 499.027344 253.472656 C 496.671875 254.117188 494.347656 254.429688 492.101562 254.429688 " fill-opacity="1" fill-rule="nonzero"/><path fill="#ffffff" d="M 476.433594 238.09375 C 472.085938 226.925781 476.867188 214.632812 487.105469 210.644531 C 497.355469 206.660156 509.183594 212.484375 513.53125 223.65625 C 517.875 234.832031 513.101562 247.117188 502.855469 251.101562 C 492.613281 255.09375 480.78125 249.265625 476.433594 238.09375 " fill-opacity="1" fill-rule="nonzero"/><path fill="#0c2e1b" d="M 493.785156 210.3125 C 491.65625 210.3125 489.515625 210.699219 487.441406 211.503906 C 482.730469 213.339844 479.082031 217.066406 477.160156 222.007812 C 475.226562 226.980469 475.269531 232.574219 477.296875 237.761719 C 479.3125 242.949219 483.0625 247.101562 487.839844 249.457031 C 492.59375 251.800781 497.8125 252.082031 502.519531 250.246094 C 507.230469 248.410156 510.886719 244.683594 512.808594 239.738281 C 514.738281 234.769531 514.691406 229.175781 512.675781 223.988281 C 509.402344 215.578125 501.679688 210.3125 493.785156 210.3125 Z M 496.148438 253.285156 C 493.070312 253.285156 489.96875 252.558594 487.027344 251.109375 C 481.832031 248.550781 477.761719 244.046875 475.578125 238.425781 C 473.390625 232.808594 473.34375 226.742188 475.441406 221.34375 C 477.550781 215.914062 481.574219 211.808594 486.777344 209.789062 C 497.472656 205.625 509.863281 211.695312 514.386719 223.324219 C 516.578125 228.9375 516.625 235.007812 514.523438 240.410156 C 512.410156 245.832031 508.386719 249.9375 503.191406 251.960938 C 500.917969 252.84375 498.542969 253.285156 496.148438 253.285156 " fill-opacity="1" fill-rule="nonzero"/><path fill="#ffffff" d="M 418.484375 714.328125 L 127.753906 629.84375 C 123.238281 628.53125 120.136719 624.398438 120.136719 619.699219 L 120.136719 420.46875 C 120.136719 413.429688 126.890625 408.359375 133.648438 410.324219 L 424.382812 494.808594 C 428.894531 496.121094 431.332031 500.320312 431.332031 505.015625 L 430.890625 702.933594 C 430.890625 709.96875 425.246094 716.292969 418.484375 714.328125 " fill-opacity="1" fill-rule="nonzero"/><path fill="#0c2e1b" d="M 424.382812 494.808594 L 421.671875 494.019531 L 421.671875 714.679688 C 427.210938 714.558594 432.003906 710.109375 432.003906 704.1875 L 432.003906 504.957031 C 432.003906 500.253906 428.894531 496.121094 424.382812 494.808594 " fill-opacity="1" fill-rule="nonzero"/><path fill="#ffffff" d="M 292.617188 726.46875 L 292.617188 566.964844 C 292.617188 559.007812 287.390625 551.992188 279.761719 549.71875 L 237.222656 537.015625 C 229.789062 534.792969 222.316406 540.363281 222.316406 548.121094 L 222.316406 746.050781 C 222.316406 750.648438 225.332031 754.699219 229.738281 756.011719 L 289.03125 773.722656 C 291.347656 774.410156 293.832031 774.273438 296.0625 773.328125 L 347.550781 751.527344 C 351.105469 750.019531 350.863281 744.898438 347.179688 743.738281 L 292.617188 726.46875 " fill-opacity="1" fill-rule="nonzero"/><path fill="#0c2e1b" d="M 233.875 537.441406 C 231.617188 537.441406 229.40625 538.164062 227.527344 539.566406 C 224.800781 541.597656 223.234375 544.714844 223.234375 548.121094 L 223.234375 746.050781 C 223.234375 750.207031 226.015625 753.945312 230 755.132812 L 289.292969 772.835938 C 291.402344 773.46875 293.679688 773.34375 295.707031 772.484375 L 347.1875 750.679688 C 348.71875 750.035156 349.210938 748.636719 349.160156 747.546875 C 349.105469 746.457031 348.488281 745.117188 346.902344 744.613281 L 292.335938 727.347656 C 291.957031 727.226562 291.691406 726.871094 291.691406 726.46875 L 291.691406 566.964844 C 291.691406 559.472656 286.679688 552.738281 279.5 550.597656 L 236.957031 537.894531 C 235.9375 537.589844 234.902344 537.441406 233.875 537.441406 Z M 292.003906 775.074219 C 290.914062 775.074219 289.824219 774.917969 288.765625 774.601562 L 229.476562 756.898438 C 224.71875 755.476562 221.394531 751.019531 221.394531 746.050781 L 221.394531 548.121094 C 221.394531 544.132812 223.230469 540.46875 226.429688 538.085938 C 229.628906 535.703125 233.660156 534.988281 237.484375 536.128906 L 280.027344 548.832031 C 287.980469 551.207031 293.539062 558.664062 293.539062 566.964844 L 293.539062 725.792969 L 347.457031 742.859375 C 349.511719 743.507812 350.898438 745.316406 350.996094 747.460938 C 351.101562 749.609375 349.886719 751.539062 347.90625 752.375 L 296.421875 774.175781 C 295.015625 774.769531 293.515625 775.074219 292.003906 775.074219 " fill-opacity="1" fill-rule="nonzero"/><path fill="#0c2e1b" d="M 303.941406 498.753906 L 228.699219 476.210938 C 227.679688 475.90625 226.976562 474.964844 226.976562 473.902344 L 226.976562 467.335938 C 226.976562 465.691406 228.5625 464.511719 230.140625 464.980469 L 303.269531 486.890625 C 304.855469 487.371094 305.945312 488.828125 305.945312 490.484375 L 305.945312 497.265625 C 305.945312 498.308594 304.9375 499.054688 303.941406 498.753906 " fill-opacity="1" fill-rule="nonzero"/><path fill="#0c2e1b" d="M 294.175781 765.046875 C 293.667969 765.046875 293.25 764.636719 293.25 764.125 L 293.25 720.8125 C 293.25 720.304688 293.667969 719.890625 294.175781 719.890625 C 294.683594 719.890625 295.09375 720.304688 295.09375 720.8125 L 295.09375 764.125 C 295.09375 764.636719 294.683594 765.046875 294.175781 765.046875 " fill-opacity="1" fill-rule="nonzero"/><path fill="#0c2e1b" d="M 420.964844 715.613281 C 420.0625 715.613281 419.140625 715.480469 418.230469 715.214844 L 310.613281 683.941406 C 310.121094 683.800781 309.84375 683.289062 309.988281 682.800781 C 310.128906 682.316406 310.628906 682.027344 311.125 682.175781 L 418.742188 713.449219 C 421.828125 714.347656 424.195312 713.242188 425.632812 712.164062 C 428.308594 710.15625 429.972656 706.617188 429.972656 702.933594 L 430.414062 505.015625 C 430.414062 500.394531 428.007812 496.820312 424.125 495.691406 L 133.390625 411.207031 C 130.453125 410.355469 127.359375 410.917969 124.910156 412.757812 C 122.460938 414.59375 121.058594 417.402344 121.058594 420.46875 L 121.058594 619.703125 C 121.058594 623.964844 123.917969 627.773438 128.011719 628.960938 L 211.929688 653.347656 C 212.417969 653.488281 212.699219 654 212.558594 654.492188 C 212.414062 654.976562 211.910156 655.261719 211.417969 655.117188 L 127.496094 630.730469 C 122.621094 629.3125 119.214844 624.777344 119.214844 619.703125 L 119.214844 420.46875 C 119.214844 416.816406 120.890625 413.472656 123.804688 411.28125 C 126.722656 409.09375 130.40625 408.417969 133.90625 409.4375 L 424.640625 493.921875 C 429.265625 495.269531 432.253906 499.621094 432.253906 505.015625 L 431.8125 702.933594 C 431.8125 707.1875 429.867188 711.285156 426.742188 713.636719 C 425 714.941406 423.015625 715.613281 420.964844 715.613281 " fill-opacity="1" fill-rule="nonzero"/><path fill="#ffffff" d="M 554.160156 101.179688 C 568.855469 77.71875 599.785156 70.613281 623.25 85.3125 C 646.707031 100.007812 653.8125 130.9375 639.113281 154.402344 C 624.417969 177.863281 593.488281 184.964844 570.023438 170.269531 C 546.566406 155.570312 539.460938 124.640625 554.160156 101.179688 " fill-opacity="1" fill-rule="nonzero"/><path fill="#0c2e1b" d="M 554.15625 101.183594 L 554.167969 101.183594 Z M 596.730469 78.570312 C 593.035156 78.570312 589.3125 78.988281 585.621094 79.835938 C 572.808594 82.777344 561.914062 90.53125 554.9375 101.671875 C 547.957031 112.808594 545.738281 125.996094 548.675781 138.804688 C 551.617188 151.617188 559.375 162.511719 570.515625 169.492188 C 593.507812 183.894531 623.929688 176.910156 638.332031 153.914062 C 645.3125 142.777344 647.535156 129.585938 644.59375 116.78125 C 641.648438 103.964844 633.898438 93.070312 622.757812 86.097656 C 614.828125 81.128906 605.859375 78.570312 596.730469 78.570312 Z M 596.550781 178.828125 C 587.300781 178.828125 577.9375 176.316406 569.539062 171.050781 C 557.984375 163.808594 549.9375 152.507812 546.882812 139.214844 C 543.828125 125.929688 546.140625 112.246094 553.375 100.691406 C 560.613281 89.136719 571.921875 81.09375 585.210938 78.042969 C 598.496094 74.988281 612.179688 77.296875 623.738281 84.53125 C 635.289062 91.773438 643.332031 103.078125 646.386719 116.367188 C 649.441406 129.65625 647.136719 143.339844 639.898438 154.890625 C 630.21875 170.339844 613.5625 178.824219 596.550781 178.828125 " fill-opacity="1" fill-rule="nonzero"/><path fill="#ffffff" d="M 605.488281 159.695312 L 564.300781 133.894531 C 562.117188 132.527344 561.457031 129.652344 562.824219 127.46875 L 580.640625 99.027344 C 582.007812 96.847656 584.882812 96.183594 587.070312 97.550781 L 628.257812 123.351562 C 630.4375 124.71875 631.09375 127.597656 629.730469 129.777344 L 611.910156 158.222656 C 610.542969 160.402344 607.671875 161.0625 605.488281 159.695312 " fill-opacity="1" fill-rule="nonzero"/><path fill="#0c2e1b" d="M 584.601562 97.761719 C 584.320312 97.761719 584.035156 97.789062 583.757812 97.855469 C 582.785156 98.078125 581.953125 98.671875 581.425781 99.515625 L 563.609375 127.957031 C 562.507812 129.707031 563.042969 132.015625 564.792969 133.113281 L 605.976562 158.914062 C 607.726562 160.011719 610.035156 159.484375 611.132812 157.734375 L 628.949219 129.285156 C 630.046875 127.542969 629.511719 125.226562 627.769531 124.132812 L 586.582031 98.328125 C 585.980469 97.953125 585.296875 97.761719 584.601562 97.761719 Z M 607.953125 161.324219 C 606.945312 161.324219 605.917969 161.050781 605 160.476562 L 563.8125 134.671875 C 561.203125 133.039062 560.414062 129.589844 562.046875 126.980469 L 579.867188 98.535156 C 580.660156 97.273438 581.890625 96.390625 583.34375 96.0625 C 584.804688 95.726562 586.292969 95.976562 587.558594 96.765625 L 628.746094 122.570312 C 631.351562 124.203125 632.140625 127.660156 630.507812 130.265625 L 612.695312 158.710938 C 611.632812 160.398438 609.816406 161.324219 607.953125 161.324219 " fill-opacity="1" fill-rule="nonzero"/><path fill="#0c2e1b" d="M 595.453125 131.277344 C 595.109375 131.277344 594.773438 131.078125 594.621094 130.742188 L 585.332031 110.53125 C 585.113281 110.066406 585.320312 109.519531 585.78125 109.3125 C 586.246094 109.097656 586.792969 109.300781 587.003906 109.761719 L 596.289062 129.96875 C 596.503906 130.429688 596.304688 130.980469 595.84375 131.191406 C 595.71875 131.253906 595.582031 131.277344 595.453125 131.277344 " fill-opacity="1" fill-rule="nonzero"/><path fill="#0c2e1b" d="M 595.566406 131.339844 C 595.070312 131.339844 594.660156 130.945312 594.648438 130.441406 C 594.640625 129.933594 595.039062 129.515625 595.550781 129.5 L 617.792969 129.039062 C 618.328125 129.039062 618.710938 129.4375 618.726562 129.945312 C 618.738281 130.453125 618.332031 130.871094 617.824219 130.878906 L 595.585938 131.339844 C 595.582031 131.339844 595.578125 131.339844 595.566406 131.339844 " fill-opacity="1" fill-rule="nonzero"/><path fill="#ffffff" d="M 405.699219 81.195312 C 403.109375 53.632812 423.355469 29.195312 450.921875 26.609375 C 478.484375 24.023438 502.921875 44.269531 505.507812 71.835938 C 508.09375 99.398438 487.851562 123.835938 460.289062 126.421875 C 432.722656 129.007812 408.28125 108.761719 405.699219 81.195312 " fill-opacity="1" fill-rule="nonzero"/><path fill="#0c2e1b" d="M 455.691406 27.304688 C 454.136719 27.304688 452.574219 27.375 451.007812 27.527344 C 437.921875 28.753906 426.097656 35 417.714844 45.125 C 409.328125 55.242188 405.386719 68.019531 406.617188 81.109375 C 407.839844 94.195312 414.09375 106.019531 424.214844 114.40625 C 434.332031 122.789062 447.117188 126.738281 460.195312 125.503906 C 473.285156 124.277344 485.113281 118.027344 493.496094 107.902344 C 501.878906 97.785156 505.824219 85.003906 504.597656 71.921875 C 503.363281 58.832031 497.113281 47.003906 486.996094 38.621094 C 478.085938 31.242188 467.117188 27.304688 455.691406 27.304688 Z M 455.511719 127.566406 C 443.660156 127.566406 432.277344 123.480469 423.039062 115.824219 C 412.539062 107.125 406.054688 94.855469 404.78125 81.28125 C 403.507812 67.707031 407.59375 54.445312 416.296875 43.945312 C 424.992188 33.445312 437.265625 26.964844 450.835938 25.691406 C 464.417969 24.421875 477.671875 28.507812 488.167969 37.203125 C 498.671875 45.902344 505.15625 58.167969 506.425781 71.742188 C 507.703125 85.320312 503.609375 98.582031 494.914062 109.078125 C 486.214844 119.578125 473.949219 126.0625 460.375 127.339844 C 458.746094 127.488281 457.128906 127.566406 455.511719 127.566406 " fill-opacity="1" fill-rule="nonzero"/><path fill="#0c2e1b" d="M 476.386719 96.363281 L 469.742188 88.128906 C 469.191406 87.441406 468.019531 86.898438 467.140625 86.910156 L 466.027344 86.933594 C 465.019531 86.949219 464.03125 87.195312 463.101562 87.582031 C 460.484375 88.65625 456.25 88.691406 450.714844 79.105469 C 445.21875 69.578125 447.304688 65.917969 449.535156 64.179688 C 450.507812 63.417969 451.292969 62.457031 451.925781 61.398438 L 452.175781 60.984375 C 452.625 60.230469 452.738281 58.945312 452.421875 58.121094 L 448.617188 48.253906 C 448.296875 47.4375 447.335938 46.890625 446.464844 47.054688 L 444.011719 47.5 C 441.949219 47.882812 440.035156 48.910156 438.671875 50.503906 C 432.867188 57.28125 433.84375 70.867188 441.636719 84.351562 C 449.4375 97.875 460.75 105.515625 469.527344 103.828125 C 471.550781 103.441406 473.367188 102.332031 474.703125 100.761719 L 476.355469 98.816406 C 476.925781 98.148438 476.9375 97.039062 476.386719 96.363281 " fill-opacity="1" fill-rule="nonzero"/><path fill="#ffffff" d="M 735.496094 237.675781 C 735.496094 263.484375 714.574219 284.410156 688.761719 284.410156 C 662.960938 284.410156 642.03125 263.484375 642.03125 237.675781 C 642.03125 211.871094 662.960938 190.953125 688.761719 190.953125 C 714.574219 190.953125 735.496094 211.871094 735.496094 237.675781 " fill-opacity="1" fill-rule="nonzero"/><path fill="#0c2e1b" d="M 688.761719 191.871094 C 663.503906 191.871094 642.957031 212.421875 642.957031 237.679688 C 642.957031 262.9375 663.503906 283.488281 688.761719 283.488281 C 714.023438 283.488281 734.570312 262.9375 734.570312 237.679688 C 734.570312 212.421875 714.023438 191.871094 688.761719 191.871094 Z M 688.761719 285.332031 C 662.488281 285.332031 641.113281 263.953125 641.113281 237.679688 C 641.113281 211.40625 662.488281 190.03125 688.761719 190.03125 C 715.035156 190.03125 736.414062 211.40625 736.414062 237.679688 C 736.414062 263.953125 715.035156 285.332031 688.761719 285.332031 " fill-opacity="1" fill-rule="nonzero"/><path fill="#0c2e1b" d="M 651.738281 250.796875 L 651.738281 249.335938 C 651.738281 243.167969 654.203125 242.007812 661.140625 237.730469 C 664.261719 235.808594 665.417969 234.839844 665.417969 233.066406 C 665.417969 230.988281 663.878906 229.945312 660.023438 229.945312 C 657.941406 229.945312 655.4375 230.328125 652.929688 230.910156 L 652.003906 226.4375 C 654.855469 225.554688 658.289062 225.125 660.679688 225.125 C 667.425781 225.125 670.964844 228.175781 670.964844 232.839844 C 670.964844 236.421875 668.773438 238.5 664.6875 241.164062 C 661.484375 243.242188 658.59375 244.789062 658.25 245.984375 L 671.082031 245.984375 L 671.082031 250.796875 L 651.738281 250.796875 " fill-opacity="1" fill-rule="nonzero"/><path fill="#0c2e1b" d="M 685.914062 231.527344 L 678.203125 240.78125 L 685.914062 240.78125 Z M 691.234375 245.328125 L 691.234375 250.800781 L 685.914062 250.800781 L 685.914062 245.328125 L 672.929688 245.328125 L 672.929688 240.472656 L 685.257812 225.511719 L 691.234375 225.511719 L 691.234375 240.78125 L 694.894531 240.78125 L 694.894531 245.328125 L 691.234375 245.328125 " fill-opacity="1" fill-rule="nonzero"/><path fill="#0c2e1b" d="M 698.828125 251.816406 L 694.683594 251.816406 L 703.292969 224.421875 L 707.453125 224.421875 L 698.828125 251.816406 " fill-opacity="1" fill-rule="nonzero"/><path fill="#0c2e1b" d="M 726.71875 228.644531 L 717.296875 250.753906 L 711.128906 250.753906 L 720.566406 230.027344 L 708.546875 230.027344 L 708.546875 225.527344 L 726.71875 225.527344 L 726.71875 228.644531 " fill-opacity="1" fill-rule="nonzero"/></svg>